<svg id="Capa_1" enable-background="new 0 0 512 512" height="512" viewBox="0 0 512 512" width="512" xmlns="http://www.w3.org/2000/svg"><g><path d="m17.885 235.291v-83.437h290.035l74.777 84.777-143.084 39.733z" fill="#fff"/><path d="m17.885 158.291h295.812l-27.324-30.834c-3.633-4.1-8.848-6.447-14.326-6.447h-235.02c-10.572 0-19.142 8.57-19.142 19.142z" fill="#62a4fb"/><path d="m494.114 323.984h-476.229v-88.854h434.445c23.077 0 41.784 18.707 41.784 41.784z" fill="#62a4fb"/><path d="m379.436 232.934-71.516-81.08h-30l71.516 81.08z" fill="#e7e7e7"/><path d="m286.374 127.457c-3.633-4.1-8.849-6.447-14.326-6.447h-30c5.478 0 10.693 2.347 14.326 6.447l27.324 30.834h30z" fill="#5392f9"/><path d="m452.33 235.13h-30c23.077 0 41.784 18.708 41.784 41.784v47.07h30v-47.07c0-23.077-18.707-41.784-41.784-41.784z" fill="#5392f9"/><path d="m494.114 282.019v-5.105c0-23.077-18.707-41.784-41.784-41.784h-6.607v29.939c0 9.361 7.589 16.95 16.95 16.95z" fill="#f8e076"/><path d="m499.666 351.356h-487.333c-2.67 0-4.834-2.164-4.834-4.834v-22.539c0-2.669 2.164-4.834 4.834-4.834h487.333c2.67 0 4.834 2.164 4.834 4.834v22.539c0 2.67-2.164 4.834-4.834 4.834z" fill="#c8c3ca"/><ellipse cx="397.998" cy="341.69" fill="#8c818f" rx="49.596" ry="49.3"/><ellipse cx="397.998" cy="341.69" fill="#c8c3ca" rx="17.401" ry="17.297"/><ellipse cx="100.144" cy="341.69" fill="#8c818f" rx="49.596" ry="49.3"/><path d="m397.998 292.389c-5.229 0-10.267.81-15 2.301 20.058 6.32 34.596 24.969 34.596 47 0 22.029-14.539 40.679-34.596 46.999 4.733 1.491 9.771 2.301 15 2.301 27.391 0 49.596-22.072 49.596-49.3.001-27.228-22.204-49.301-49.596-49.301z" fill="#766d78"/><path d="m100.144 292.389c-5.229 0-10.267.81-15 2.301 20.058 6.32 34.596 24.969 34.596 47 0 22.029-14.538 40.679-34.596 46.999 4.733 1.491 9.771 2.301 15 2.301 27.391 0 49.596-22.072 49.596-49.3s-22.205-49.301-49.596-49.301z" fill="#766d78"/><ellipse cx="100.144" cy="341.69" fill="#c8c3ca" rx="17.401" ry="17.297"/><path d="m501.614 311.82v-34.906c0-27.175-22.109-49.284-49.284-49.284h-67.605c-.102-.133-.202-.267-.315-.395l-92.423-104.752c-5.053-5.702-12.321-8.973-19.94-8.973h-192.898c-4.142 0-7.5 3.358-7.5 7.5s3.358 7.5 7.5 7.5h192.898c3.329 0 6.505 1.429 8.713 3.921l10.566 11.923h-265.941v-4.202c0-6.42 5.223-11.642 11.642-11.642h12.122c4.142 0 7.5-3.358 7.5-7.5s-3.358-7.5-7.5-7.5h-12.122c-14.69 0-26.642 11.952-26.642 26.642v171.668c-5.876.939-10.385 6.028-10.385 12.164v22.539c0 6.801 5.533 12.333 12.334 12.333h33.386c7.332 22.954 28.955 39.633 54.424 39.633 25.47 0 47.092-16.68 54.425-39.633h98.604c4.142 0 7.5-3.358 7.5-7.5s-3.358-7.5-7.5-7.5h-95.988c.027-.72.055-1.44.055-2.166 0-5.207-.722-10.246-2.047-15.039h187.755c-1.325 4.794-2.047 9.833-2.047 15.039 0 .726.028 1.446.055 2.166h-57.784c-4.142 0-7.5 3.358-7.5 7.5s3.358 7.5 7.5 7.5h60.401c7.332 22.954 28.955 39.633 54.424 39.633 25.47 0 47.093-16.68 54.425-39.633h47.243c6.801 0 12.334-5.533 12.334-12.333v-22.539c.001-6.136-4.509-11.225-10.385-12.164zm-48.391-69.168c17.691.456 32.084 14.371 33.298 31.867h-23.848c-5.21 0-9.45-4.239-9.45-9.45zm-249.878-83.298h101.19l60.222 68.276h-161.412zm-93.656 0h78.656v68.276h-78.656zm-84.304 0h69.304v68.276h-69.304zm-10.385 184.502v-17.206h30.095c-1.325 4.794-2.047 9.833-2.047 15.039 0 .726.028 1.446.055 2.166h-28.103zm85.144 39.634c-23.212 0-42.096-18.751-42.096-41.8s18.884-41.801 42.096-41.801 42.096 18.752 42.096 41.801c0 23.048-18.884 41.8-42.096 41.8zm0-98.601c-20.401 0-38.327 10.707-48.426 26.762h-26.333v-69.021h162.959v69.021h-39.774c-10.099-16.055-28.025-26.762-48.426-26.762zm103.201 26.762v-69.021h234.878v22.439c0 13.482 10.968 24.45 24.45 24.45h23.942v22.132h-40.19c-10.099-16.055-28.025-26.762-48.427-26.762-20.401 0-38.327 10.707-48.426 26.762zm194.653 71.839c-23.212 0-42.096-18.751-42.096-41.8s18.884-41.801 42.096-41.801 42.097 18.752 42.097 41.801c0 23.048-18.885 41.8-42.097 41.8zm99.002-39.634h-41.961c.027-.72.055-1.44.055-2.166 0-5.207-.722-10.246-2.047-15.039h43.953z"/><path d="m397.998 316.893c-13.73 0-24.9 11.124-24.9 24.797s11.17 24.796 24.9 24.796c13.731 0 24.901-11.124 24.901-24.796 0-13.673-11.17-24.797-24.901-24.797zm0 34.593c-5.459 0-9.9-4.395-9.9-9.796 0-5.402 4.441-9.797 9.9-9.797 5.46 0 9.901 4.395 9.901 9.797s-4.441 9.796-9.901 9.796z"/><path d="m100.144 316.893c-13.73 0-24.901 11.124-24.901 24.797s11.17 24.796 24.901 24.796 24.901-11.124 24.901-24.796c0-13.673-11.17-24.797-24.901-24.797zm0 34.593c-5.459 0-9.901-4.395-9.901-9.796 0-5.402 4.441-9.797 9.901-9.797s9.901 4.395 9.901 9.797-4.441 9.796-9.901 9.796z"/><path d="m160.932 251.075h-12.32c-4.142 0-7.5 3.358-7.5 7.5s3.358 7.5 7.5 7.5h12.32c4.142 0 7.5-3.358 7.5-7.5s-3.358-7.5-7.5-7.5z"/><path d="m242.005 251.075h-12.32c-4.142 0-7.5 3.358-7.5 7.5s3.358 7.5 7.5 7.5h12.32c4.142 0 7.5-3.358 7.5-7.5s-3.358-7.5-7.5-7.5z"/></g></svg>