<svg id="Capa_1" enable-background="new 0 0 512 512" height="512" viewBox="0 0 512 512" width="512" xmlns="http://www.w3.org/2000/svg"><g><path d="m424.5 7.5h-30v497h30c44.183 0 80-35.817 80-80v-337c0-44.183-35.817-80-80-80z" fill="#ffcf66"/><path d="m474.5 424.5-60-84.25 60-84.25v-168.5c0-44.183-35.817-80-80-80h-307c-44.183 0-80 35.817-80 80v337c0 44.183 35.817 80 80 80h307c44.183 0 80-35.817 80-80z" fill="#ffe09e"/><path d="m424.5 37.5v100c27.614 0 50-22.386 50-50s-22.386-50-50-50z" fill="#5c2bc8"/><path d="m444.5 87.5c0-27.614-8.954-50-20-50-27.614 0-50 22.386-50 50s22.386 50 50 50c11.046 0 20-22.386 20-50z" fill="#6241ea"/><path d="m444.5 256-50 218.5h30c27.614 0 50-22.386 50-50v-168.5z" fill="#6241ea"/><path d="m444.5 424.5v-168.5h-407v168.5c0 27.614 22.386 50 50 50h307c27.614 0 50-22.386 50-50z" fill="#725fee"/><path d="m256.342 97.5v317c87.537 0 158.5-70.963 158.5-158.5s-70.963-158.5-158.5-158.5z" fill="#e5faff"/><path d="m384.842 256c0-87.537-57.531-158.5-128.5-158.5-87.537 0-158.5 70.963-158.5 158.5s70.963 158.5 158.5 158.5c70.968 0 128.5-70.963 128.5-158.5z" fill="#fff"/><circle cx="256.342" cy="256" fill="#5c2bc8" r="98.5"/><path d="m256.342 187.5v137c37.832 0 68.5-30.668 68.5-68.5s-30.669-68.5-68.5-68.5z" fill="#28a6fa"/><path d="m294.842 256c0-37.832-17.237-68.5-38.5-68.5-37.832 0-68.5 30.668-68.5 68.5s30.668 68.5 68.5 68.5c21.263 0 38.5-30.668 38.5-68.5z" fill="#24c0ff"/><path d="m424.5 0h-337c-48.248 0-87.5 39.252-87.5 87.5v337c0 48.248 39.252 87.5 87.5 87.5h337c48.248 0 87.5-39.252 87.5-87.5v-337c0-48.248-39.252-87.5-87.5-87.5zm72.5 424.5c0 39.977-32.523 72.5-72.5 72.5h-337c-39.977 0-72.5-32.523-72.5-72.5v-337c0-39.977 32.523-72.5 72.5-72.5h337c39.977 0 72.5 32.523 72.5 72.5z"/><path d="m474.5 248.5h-52.335c-3.937-88.064-76.805-158.5-165.823-158.5s-161.887 70.436-165.823 158.5h-53.019c-4.143 0-7.5 3.357-7.5 7.5v69.25c0 4.143 3.357 7.5 7.5 7.5s7.5-3.357 7.5-7.5v-61.75h45.519c3.936 88.064 76.805 158.5 165.823 158.5s161.886-70.436 165.823-158.5h44.835v161c0 23.435-19.065 42.5-42.5 42.5h-337c-23.435 0-42.5-19.065-42.5-42.5v-69.25c0-4.143-3.357-7.5-7.5-7.5s-7.5 3.357-7.5 7.5v69.25c0 31.706 25.794 57.5 57.5 57.5h337c31.706 0 57.5-25.794 57.5-57.5v-168.5c0-4.143-3.357-7.5-7.5-7.5zm-218.158 158.5c-83.262 0-151-67.738-151-151s67.738-151 151-151 151 67.738 151 151-67.738 151-151 151z"/><path d="m256.342 150c-58.448 0-106 47.552-106 106s47.552 106 106 106 106-47.552 106-106-47.552-106-106-106zm0 197c-50.178 0-91-40.822-91-91s40.822-91 91-91 91 40.822 91 91-40.822 91-91 91z"/><path d="m424.5 30c-31.706 0-57.5 25.794-57.5 57.5s25.794 57.5 57.5 57.5 57.5-25.794 57.5-57.5-25.794-57.5-57.5-57.5zm0 100c-23.435 0-42.5-19.065-42.5-42.5s19.065-42.5 42.5-42.5 42.5 19.065 42.5 42.5-19.065 42.5-42.5 42.5z"/><path d="m256.342 180c-41.906 0-76 34.094-76 76s34.094 76 76 76 76-34.094 76-76-34.094-76-76-76zm0 137c-33.636 0-61-27.364-61-61s27.364-61 61-61 61 27.364 61 61-27.364 61-61 61z"/></g></svg>