<?xml version="1.0" encoding="iso-8859-1"?>
<!-- Generator: Adobe Illustrator 19.1.0, SVG Export Plug-In . SVG Version: 6.00 Build 0)  -->
<svg version="1.1" id="Capa_1" xmlns="http://www.w3.org/2000/svg" xmlns:xlink="http://www.w3.org/1999/xlink" x="0px" y="0px"
	 viewBox="0 0 437.05 437.05" style="enable-background:new 0 0 437.05 437.05;" xml:space="preserve">
<g>
	<path d="M390.22,238.535c28.28,19.65,46.83,52.37,46.83,89.34c0,59.95-48.77,108.72-108.72,108.72c-36.7,0-69.21-18.28-88.91-46.21
		c-13.77,3.01-27.93,4.54-42.19,4.54C88.48,394.925,0,306.445,0,197.695C0,88.935,88.48,0.455,197.23,0.455
		s197.23,88.48,197.23,197.24C394.46,211.465,393.03,225.175,390.22,238.535z M422.05,327.875c0-51.68-42.04-93.73-93.72-93.73
		s-93.72,42.05-93.72,93.73s42.04,93.72,93.72,93.72S422.05,379.555,422.05,327.875z M376.52,230.435
		c1.95-10.76,2.94-21.73,2.94-32.74c0-100.49-81.75-182.24-182.23-182.24S15,97.205,15,197.695c0,100.48,81.75,182.23,182.23,182.23
		c11.46,0,22.86-1.08,34-3.18c-1.89-3.74-3.57-7.59-5.03-11.56c-9.52,1.64-19.24,2.48-28.97,2.48
		c-93.72,0-169.97-76.25-169.97-169.97c0-93.73,76.25-169.98,169.97-169.98s169.97,76.25,169.97,169.98c0,9.32-0.77,18.64-2.28,27.8
		C368.9,226.915,372.77,228.565,376.52,230.435z M350.4,221.405c1.19-7.83,1.8-15.77,1.8-23.71c0-85.46-69.52-154.98-154.97-154.98
		s-154.97,69.52-154.97,154.98c0,85.45,69.52,154.97,154.97,154.97c8.32,0,16.63-0.67,24.79-1.98c-1.58-7.36-2.41-14.99-2.41-22.81
		c0-59.95,48.77-108.73,108.72-108.73C335.89,219.145,343.27,219.925,350.4,221.405z"/>
	<path style="fill:#F48C6C;" d="M328.33,234.145c51.68,0,93.72,42.05,93.72,93.73s-42.04,93.72-93.72,93.72
		s-93.72-42.04-93.72-93.72S276.65,234.145,328.33,234.145z M410.43,327.875c0-45.27-36.83-82.1-82.1-82.1s-82.1,36.83-82.1,82.1
		s36.83,82.1,82.1,82.1S410.43,373.145,410.43,327.875z"/>
	<path d="M328.33,245.775c45.27,0,82.1,36.83,82.1,82.1s-36.83,82.1-82.1,82.1s-82.1-36.83-82.1-82.1S283.06,245.775,328.33,245.775
		z M395.43,327.875c0-37-30.1-67.1-67.1-67.1s-67.1,30.1-67.1,67.1s30.1,67.1,67.1,67.1S395.43,364.875,395.43,327.875z"/>
	<path style="fill:#3DD0F2;" d="M379.46,197.695c0,11.01-0.99,21.98-2.94,32.74c-3.75-1.87-7.62-3.52-11.6-4.94
		c1.51-9.16,2.28-18.48,2.28-27.8c0-93.73-76.25-169.98-169.97-169.98s-169.97,76.25-169.97,169.98
		c0,93.72,76.25,169.97,169.97,169.97c9.73,0,19.45-0.84,28.97-2.48c1.46,3.97,3.14,7.82,5.03,11.56c-11.14,2.1-22.54,3.18-34,3.18
		C96.75,379.925,15,298.175,15,197.695c0-100.49,81.75-182.24,182.23-182.24S379.46,97.205,379.46,197.695z"/>
	<path d="M356.22,307.485c0,4.14-3.36,7.5-7.5,7.5c-4.15,0-7.5-3.36-7.5-7.5c0-4.31-2.13-8.12-5.39-10.46v24.38
		c11.74,3.29,20.39,14.08,20.39,26.86c0,12.78-8.65,23.57-20.39,26.85v2.98c0,4.14-3.36,7.5-7.5,7.5c-4.14,0-7.5-3.36-7.5-7.5v-2.98
		c-11.75-3.28-20.39-14.07-20.39-26.85c0-4.15,3.36-7.5,7.5-7.5c4.14,0,7.5,3.35,7.5,7.5c0,4.3,2.13,8.12,5.39,10.46v-24.38
		c-11.75-3.29-20.39-14.08-20.39-26.86c0-12.78,8.64-23.57,20.39-26.86v-2.97c0-4.15,3.36-7.5,7.5-7.5c4.14,0,7.5,3.35,7.5,7.5v2.97
		C347.57,283.915,356.22,294.705,356.22,307.485z M341.22,348.265c0-4.31-2.13-8.12-5.39-10.46v20.92
		C339.09,356.375,341.22,352.565,341.22,348.265z M320.83,317.945v-20.92c-3.26,2.34-5.39,6.15-5.39,10.46
		C315.44,311.795,317.57,315.605,320.83,317.945z"/>
	<path d="M330.78,190.185c4.14,0,7.5,3.36,7.5,7.5c0,4.15-3.36,7.5-7.5,7.5h-21.11c-4.14,0-7.5-3.35-7.5-7.5
		c0-4.14,3.36-7.5,7.5-7.5H330.78z"/>
	<path d="M319.38,127.165c2.07,3.59,0.84,8.18-2.75,10.25l-6.93,4c-1.18,0.68-2.47,1.01-3.75,1.01c-2.59,0-5.11-1.35-6.5-3.75
		c-2.07-3.59-0.84-8.18,2.75-10.25l6.93-4C312.72,122.355,317.31,123.575,319.38,127.165z"/>
	<path d="M267.75,75.535c3.59,2.08,4.82,6.66,2.75,10.25l-4.01,6.94c-1.39,2.4-3.91,3.75-6.5,3.75c-1.27,0-2.56-0.33-3.74-1.01
		c-3.59-2.07-4.82-6.66-2.75-10.24l4.01-6.94C259.58,74.695,264.16,73.465,267.75,75.535z"/>
	<path d="M204.73,310.135v21.1c0,4.14-3.36,7.5-7.5,7.5s-7.5-3.36-7.5-7.5v-21.1c0-4.14,3.36-7.5,7.5-7.5
		S204.73,305.995,204.73,310.135z"/>
	<path d="M204.73,123.955v73.73c0,4.15-3.36,7.5-7.5,7.5h-32c-4.14,0-7.5-3.35-7.5-7.5c0-4.14,3.36-7.5,7.5-7.5h24.5v-66.23
		c0-4.14,3.36-7.5,7.5-7.5S204.73,119.815,204.73,123.955z"/>
	<path d="M204.73,64.145v21.1c0,4.14-3.36,7.5-7.5,7.5s-7.5-3.36-7.5-7.5v-21.1c0-4.14,3.36-7.5,7.5-7.5
		S204.73,60.005,204.73,64.145z"/>
	<path d="M140.96,85.225c2.07,3.58,0.84,8.17-2.75,10.24c-1.18,0.68-2.47,1.01-3.74,1.01c-2.59,0-5.11-1.35-6.5-3.75l-4.01-6.94
		c-2.07-3.59-0.84-8.17,2.75-10.25c3.58-2.07,8.17-0.84,10.24,2.75L140.96,85.225z"/>
	<path d="M138.21,299.915c3.59,2.07,4.82,6.65,2.75,10.24l-4.01,6.94c-1.39,2.41-3.91,3.75-6.5,3.75c-1.27,0-2.56-0.32-3.74-1
		c-3.59-2.08-4.82-6.66-2.75-10.25l4.01-6.94C130.04,299.065,134.62,297.835,138.21,299.915z"/>
	<path d="M92.26,128.425c3.59,2.07,4.82,6.66,2.75,10.25c-1.39,2.4-3.91,3.75-6.5,3.75c-1.28,0-2.57-0.33-3.75-1.01l-6.94-4
		c-3.58-2.07-4.81-6.66-2.74-10.25s6.66-4.82,10.24-2.74L92.26,128.425z"/>
	<path d="M95.01,256.705c2.07,3.59,0.84,8.18-2.75,10.25l-6.94,4c-1.18,0.69-2.47,1.01-3.74,1.01c-2.59,0-5.11-1.35-6.5-3.75
		c-2.07-3.59-0.84-8.18,2.74-10.25l6.94-4C88.35,251.895,92.94,253.125,95.01,256.705z"/>
	<path d="M84.78,190.185c4.15,0,7.5,3.36,7.5,7.5c0,4.15-3.35,7.5-7.5,7.5h-21.1c-4.14,0-7.5-3.35-7.5-7.5c0-4.14,3.36-7.5,7.5-7.5
		H84.78z"/>
</g>
<g>
</g>
<g>
</g>
<g>
</g>
<g>
</g>
<g>
</g>
<g>
</g>
<g>
</g>
<g>
</g>
<g>
</g>
<g>
</g>
<g>
</g>
<g>
</g>
<g>
</g>
<g>
</g>
<g>
</g>
</svg>
