<?xml version="1.0" encoding="utf-8"?>
<!-- Generator: Adobe Illustrator 21.0.0, SVG Export Plug-In . SVG Version: 6.00 Build 0)  -->
<svg version="1.1" id="Layer_1" xmlns="http://www.w3.org/2000/svg" xmlns:xlink="http://www.w3.org/1999/xlink" x="0px" y="0px"
	 viewBox="0 0 155 35" style="enable-background:new 0 0 155 35;" xml:space="preserve">
<style type="text/css">
	.st0{fill:#F8FDFF;}
	.st1{fill:#97E2FF;}
</style>
<g>
	<path class="st0" d="M7.8,23.3c0.1,1.1,1.1,1.6,2.2,1.5c1.1,0,2.3-0.4,2.3-1.6c0-1.1-1-1.2-1.9-1.3c-2.7-0.3-6.2-0.6-6.3-3.8
		c-0.1-3,2.3-4.5,5.6-4.5c3.2-0.1,6,1.3,5.9,4.1l-3.6,0.1c-0.1-1-1-1.3-2.1-1.3c-1.1,0-2,0.6-2,1.4c0,1,1.1,1.1,1.9,1.2
		c3,0.3,6.4,0.4,6.4,4c0,3.2-2.9,4.4-5.9,4.5c-3,0.1-6.1-0.7-6.3-4.3L7.8,23.3z"/>
</g>
<g>
	<path class="st0" d="M25.1,27.6c-3.5,0-7.1-2.3-7.1-7c0-4.6,3.5-7,7-7c3.6,0,7.1,2.3,7.1,7C32.2,25.3,28.7,27.6,25.1,27.6z
		 M25.1,24.3c1.6,0,3.3-1.2,3.3-3.6c0-2.4-1.5-3.6-3.2-3.6s-3.3,1.2-3.3,3.6S23.5,24.3,25.1,24.3z"/>
</g>
<g>
	<path class="st0" d="M36,16.8h-2.5v-2.7h2.5l0-1.7c0-5.4,4.2-6.1,8.6-4.8l-0.4,2.9c-2-0.7-4.5-0.9-4.5,2v1.6H44v2.7h-4.2v10.6H36
		V16.8z"/>
</g>
<g>
	<path class="st0" d="M58,21.5h-9c0.1,2.1,1.7,2.9,3.5,3c0.6,0,1.2,0.1,1.8,0c1.2-0.1,2.4-0.4,3.2-0.8l0.4,2.8
		c-1.6,0.7-3.4,1.2-5.2,1.2c-4.5,0.1-7.6-2.7-7.6-7.2c0.1-4.6,3.5-6.8,7-6.8C57,13.7,59,17,58,21.5z M49,19h5.9
		c0.1-1.7-1.3-2.3-2.8-2.3C50.6,16.7,49.3,17.5,49,19z"/>
</g>
<g>
	<path class="st0" d="M69,13.6c1,0,2.1,0.3,2.8,0.9L71,17.7c-0.8-0.5-1.6-0.7-2.5-0.7c-1.7,0-3.1,1.1-3.1,3.2v7.2h-3.8V18
		c0-1.1-0.1-1.8-1.3-1.6v-2.4c1.9-0.4,4.8-0.4,5,1.9C65.8,14.4,67.4,13.6,69,13.6z"/>
</g>
<g>
	<path class="st1" d="M79.9,27.6c-3.5,0-7.1-2.3-7.1-7c0-4.6,3.5-7,7-7c3.6,0,7.1,2.3,7.1,7C86.9,25.3,83.4,27.6,79.9,27.6z
		 M79.8,24.3c1.6,0,3.3-1.2,3.3-3.6c0-2.4-1.5-3.6-3.2-3.6s-3.3,1.2-3.3,3.6S78.2,24.3,79.8,24.3z"/>
</g>
<g>
	<path class="st1" d="M99.4,27.4v-7.7c0.1-1.8-1.1-2.8-2.5-2.8c-1.5,0-2.8,1.1-2.8,2.9v7.6h-3.9v-9.2c0-1.3,0-1.7-1.3-1.7V14
		c1.8-0.3,4.9-0.6,4.9,1.8c0.7-1.5,2.7-2.1,4.3-2.1c3.8,0,5.3,2.6,5.3,5.9v7.7H99.4z"/>
</g>
<g>
	<path class="st1" d="M110.4,7.1v15.2c0,2,0.8,2.5,2.7,2.2l0.1,2.9c-4.1,0.7-6.6-0.3-6.6-5.1V7.1H110.4z"/>
</g>
<g>
	<path class="st1" d="M117.2,8c1.1,0,2.2,0.8,2.2,2.2c0,1.5-1.1,2.2-2.2,2.2c-1.2,0-2.4-0.7-2.4-2.2C114.9,8.7,116.1,7.9,117.2,8z
		 M119.1,27.4h-3.9V14.2h3.9V27.4z"/>
</g>
<g>
	<path class="st1" d="M132.4,27.4v-7.7c0.1-1.8-1.1-2.8-2.5-2.8c-1.5,0-2.8,1.1-2.8,2.9v7.6h-3.9v-9.2c0-1.3,0-1.7-1.3-1.7V14
		c1.8-0.3,4.9-0.6,4.9,1.8c0.7-1.5,2.7-2.1,4.3-2.1c3.8,0,5.3,2.6,5.3,5.9v7.7H132.4z"/>
</g>
<g>
	<path class="st1" d="M151.8,21.5h-9c0.1,2.1,1.7,2.9,3.5,3c0.6,0,1.2,0.1,1.8,0c1.2-0.1,2.4-0.4,3.2-0.8l0.4,2.8
		c-1.6,0.7-3.4,1.2-5.2,1.2c-4.5,0.1-7.6-2.7-7.6-7.2c0.1-4.6,3.5-6.8,7-6.8C150.8,13.7,152.8,17,151.8,21.5z M142.8,19h5.9
		c0.1-1.7-1.3-2.3-2.8-2.3C144.4,16.7,143.1,17.5,142.8,19z"/>
</g>
</svg>
